<?xml version="1.0" encoding="utf-8"?>
<!-- Generator: Adobe Illustrator 24.1.1, SVG Export Plug-In . SVG Version: 6.00 Build 0)  -->
<svg version="1.1" id="Layer_1" xmlns="http://www.w3.org/2000/svg" xmlns:xlink="http://www.w3.org/1999/xlink" x="0px" y="0px"
	 viewBox="0 0 500 500" style="enable-background:new 0 0 500 500;" xml:space="preserve">
<style type="text/css">
	.st0{fill:url(#SVGID_1_);}
	.st1{fill:url(#SVGID_2_);}
	.st2{fill:url(#SVGID_3_);}
	.st3{fill:url(#SVGID_4_);}
	.st4{fill:url(#SVGID_5_);}
</style>
<linearGradient id="SVGID_1_" gradientUnits="userSpaceOnUse" x1="45.3401" y1="195.3401" x2="154.6599" y2="304.6599">
	<stop  offset="0" style="stop-color:#28F29C"/>
	<stop  offset="0.2264" style="stop-color:#24EAA5"/>
	<stop  offset="0.6027" style="stop-color:#1AD4BF"/>
	<stop  offset="0.9944" style="stop-color:#0CB8E0"/>
</linearGradient>
<path class="st0" d="M100,350L100,350c-12.43,0-22.5-10.07-22.5-22.5v-155c0-12.43,10.07-22.5,22.5-22.5h0
	c12.43,0,22.5,10.07,22.5,22.5v155C122.5,339.93,112.43,350,100,350z"/>
<linearGradient id="SVGID_2_" gradientUnits="userSpaceOnUse" x1="100.3401" y1="175.3401" x2="249.6599" y2="324.6599">
	<stop  offset="0" style="stop-color:#28F29C"/>
	<stop  offset="0.2264" style="stop-color:#24EAA5"/>
	<stop  offset="0.6027" style="stop-color:#1AD4BF"/>
	<stop  offset="0.9944" style="stop-color:#0CB8E0"/>
</linearGradient>
<path class="st1" d="M175,390L175,390c-12.43,0-22.5-10.07-22.5-22.5v-235c0-12.43,10.07-22.5,22.5-22.5h0
	c12.43,0,22.5,10.07,22.5,22.5v235C197.5,379.93,187.43,390,175,390z"/>
<linearGradient id="SVGID_3_" gradientUnits="userSpaceOnUse" x1="152.8401" y1="152.8401" x2="347.1599" y2="347.1599">
	<stop  offset="0" style="stop-color:#28F29C"/>
	<stop  offset="0.2264" style="stop-color:#24EAA5"/>
	<stop  offset="0.6027" style="stop-color:#1AD4BF"/>
	<stop  offset="0.9944" style="stop-color:#0CB8E0"/>
</linearGradient>
<path class="st2" d="M250,435L250,435c-12.43,0-22.5-10.07-22.5-22.5v-325c0-12.43,10.07-22.5,22.5-22.5h0
	c12.43,0,22.5,10.07,22.5,22.5v325C272.5,424.93,262.43,435,250,435z"/>
<linearGradient id="SVGID_4_" gradientUnits="userSpaceOnUse" x1="270.3401" y1="197.5379" x2="379.6599" y2="306.8577">
	<stop  offset="0" style="stop-color:#28F29C"/>
	<stop  offset="0.2264" style="stop-color:#24EAA5"/>
	<stop  offset="0.6027" style="stop-color:#1AD4BF"/>
	<stop  offset="0.9944" style="stop-color:#0CB8E0"/>
</linearGradient>
<path class="st3" d="M325,352.2L325,352.2c-12.43,0-22.5-10.07-22.5-22.5v-155c0-12.43,10.07-22.5,22.5-22.5h0
	c12.43,0,22.5,10.07,22.5,22.5v155C347.5,342.12,337.43,352.2,325,352.2z"/>
<linearGradient id="SVGID_5_" gradientUnits="userSpaceOnUse" x1="330.3401" y1="180.3401" x2="469.6599" y2="319.6599">
	<stop  offset="0" style="stop-color:#28F29C"/>
	<stop  offset="0.2264" style="stop-color:#24EAA5"/>
	<stop  offset="0.6027" style="stop-color:#1AD4BF"/>
	<stop  offset="0.9944" style="stop-color:#0CB8E0"/>
</linearGradient>
<path class="st4" d="M400,380L400,380c-12.43,0-22.5-10.07-22.5-22.5v-215c0-12.43,10.07-22.5,22.5-22.5h0
	c12.43,0,22.5,10.07,22.5,22.5v215C422.5,369.93,412.43,380,400,380z"/>
</svg>
